<svg width="137" height="70" viewBox="0 0 137 70" fill="none" xmlns="http://www.w3.org/2000/svg">
    <path fill-rule="evenodd" clip-rule="evenodd" d="M62.7241 70H63.0001H76.5001H76.7512C77.1951 70 77.5859 69.7074 77.7108 69.2814L87.1674 37.0311L97.774 69.3122C97.9089 69.7226 98.292 70 98.7241 70H99H111.138H112.776C113.208 70 113.591 69.7226 113.726 69.3122L136.069 1.31215C136.281 0.665413 135.8 0 135.119 0H121.734C121.297 0 120.911 0.283484 120.78 0.700173L105.75 48.5227L90.7201 0.700175C90.5891 0.283485 90.2029 0 89.7661 0H76.3812C75.7004 0 75.2187 0.665416 75.4312 1.31215L80.0008 15.2198L69.7075 48.3872L54.7201 0.700175C54.5892 0.283485 54.2029 0 53.7661 0H40.3812C39.7005 0 39.2187 0.665416 39.4312 1.31215L61.7741 69.3122C61.9089 69.7226 62.2921 70 62.7241 70Z" fill="black"/>
    <path fill-rule="evenodd" clip-rule="evenodd" d="M35.3752 70H47.7887C48.464 70 48.9452 69.3444 48.7427 68.7002L27.3713 0.700175C27.2403 0.283485 26.8541 0 26.4173 0H13.0324C12.3516 0 11.8698 0.665416 12.0823 1.31215L16.4915 14.7314C16.4564 14.7946 16.4269 14.8637 16.4041 14.9387L0.0439724 68.7089C-0.151489 69.3513 0.329177 70 1.00067 70H13.1177C13.5618 70 13.9526 69.7072 14.0774 69.2811L23.6628 36.5569L34.4252 69.3122C34.5601 69.7226 34.9432 70 35.3752 70Z" fill="black"/>
</svg>

